<?xml version="1.0" encoding="utf-8" standalone="no"?>
<!DOCTYPE svg PUBLIC "-//W3C//DTD SVG 1.1//EN"
  "http://www.w3.org/Graphics/SVG/1.1/DTD/svg11.dtd">
<!-- Created with matplotlib (http://matplotlib.org/) -->
<svg height="216pt" version="1.1" viewBox="0 0 360 216" width="360pt" xmlns="http://www.w3.org/2000/svg" xmlns:xlink="http://www.w3.org/1999/xlink">
 <defs>
  <style type="text/css">
*{stroke-linecap:butt;stroke-linejoin:round;stroke-miterlimit:100000;}
  </style>
 </defs>
 <g id="figure_1">
  <g id="patch_1">
   <path d="M 0 216 
L 360 216 
L 360 0 
L 0 0 
z
" style="fill:#ffffff;"/>
  </g>
  <g id="axes_1">
   <g id="patch_2">
    <path d="M 46.8 172.8 
L 313.2 172.8 
L 313.2 43.2 
L 46.8 43.2 
z
" style="fill:#ffffff;"/>
   </g>
   <g id="patch_3">
    <path clip-path="url(#p5a3d58a272)" d="M 46.8 172.8 
L 52.72 172.8 
L 52.72 43.213478 
L 46.8 43.213478 
z
" style="fill:#b21212;stroke:#b21212;stroke-linejoin:miter;stroke-width:0.4;"/>
   </g>
   <g id="patch_4">
    <path clip-path="url(#p5a3d58a272)" d="M 52.72 172.8 
L 58.64 172.8 
L 58.64 43.213478 
L 52.72 43.213478 
z
" style="fill:#b21212;stroke:#b21212;stroke-linejoin:miter;stroke-width:0.4;"/>
   </g>
   <g id="patch_5">
    <path clip-path="url(#p5a3d58a272)" d="M 58.64 172.8 
L 64.56 172.8 
L 64.56 43.213478 
L 58.64 43.213478 
z
" style="fill:#b21212;stroke:#b21212;stroke-linejoin:miter;stroke-width:0.4;"/>
   </g>
   <g id="patch_6">
    <path clip-path="url(#p5a3d58a272)" d="M 64.56 172.8 
L 70.48 172.8 
L 70.48 43.213478 
L 64.56 43.213478 
z
" style="fill:#b21212;stroke:#b21212;stroke-linejoin:miter;stroke-width:0.4;"/>
   </g>
   <g id="patch_7">
    <path clip-path="url(#p5a3d58a272)" d="M 70.48 172.8 
L 76.4 172.8 
L 76.4 43.213478 
L 70.48 43.213478 
z
" style="fill:#b21212;stroke:#b21212;stroke-linejoin:miter;stroke-width:0.4;"/>
   </g>
   <g id="patch_8">
    <path clip-path="url(#p5a3d58a272)" d="M 76.4 172.8 
L 82.32 172.8 
L 82.32 43.213478 
L 76.4 43.213478 
z
" style="fill:#b21212;stroke:#b21212;stroke-linejoin:miter;stroke-width:0.4;"/>
   </g>
   <g id="patch_9">
    <path clip-path="url(#p5a3d58a272)" d="M 82.32 172.8 
L 88.24 172.8 
L 88.24 43.213478 
L 82.32 43.213478 
z
" style="fill:#b21212;stroke:#b21212;stroke-linejoin:miter;stroke-width:0.4;"/>
   </g>
   <g id="patch_10">
    <path clip-path="url(#p5a3d58a272)" d="M 88.24 172.8 
L 94.16 172.8 
L 94.16 43.213478 
L 88.24 43.213478 
z
" style="fill:#b21212;stroke:#b21212;stroke-linejoin:miter;stroke-width:0.4;"/>
   </g>
   <g id="patch_11">
    <path clip-path="url(#p5a3d58a272)" d="M 94.16 172.8 
L 100.08 172.8 
L 100.08 43.213478 
L 94.16 43.213478 
z
" style="fill:#b21212;stroke:#b21212;stroke-linejoin:miter;stroke-width:0.4;"/>
   </g>
   <g id="patch_12">
    <path clip-path="url(#p5a3d58a272)" d="M 100.08 172.8 
L 106 172.8 
L 106 43.213478 
L 100.08 43.213478 
z
" style="fill:#b21212;stroke:#b21212;stroke-linejoin:miter;stroke-width:0.4;"/>
   </g>
   <g id="patch_13">
    <path clip-path="url(#p5a3d58a272)" d="M 106 172.8 
L 111.92 172.8 
L 111.92 43.213478 
L 106 43.213478 
z
" style="fill:#b21212;stroke:#b21212;stroke-linejoin:miter;stroke-width:0.4;"/>
   </g>
   <g id="patch_14">
    <path clip-path="url(#p5a3d58a272)" d="M 111.92 172.8 
L 117.84 172.8 
L 117.84 43.213478 
L 111.92 43.213478 
z
" style="fill:#b21212;stroke:#b21212;stroke-linejoin:miter;stroke-width:0.4;"/>
   </g>
   <g id="patch_15">
    <path clip-path="url(#p5a3d58a272)" d="M 117.84 172.8 
L 123.76 172.8 
L 123.76 43.213478 
L 117.84 43.213478 
z
" style="fill:#b21212;stroke:#b21212;stroke-linejoin:miter;stroke-width:0.4;"/>
   </g>
   <g id="patch_16">
    <path clip-path="url(#p5a3d58a272)" d="M 123.76 172.8 
L 129.68 172.8 
L 129.68 43.213478 
L 123.76 43.213478 
z
" style="fill:#b21212;stroke:#b21212;stroke-linejoin:miter;stroke-width:0.4;"/>
   </g>
   <g id="patch_17">
    <path clip-path="url(#p5a3d58a272)" d="M 129.68 172.8 
L 135.6 172.8 
L 135.6 43.213478 
L 129.68 43.213478 
z
" style="fill:#b21212;stroke:#b21212;stroke-linejoin:miter;stroke-width:0.4;"/>
   </g>
   <g id="patch_18">
    <path clip-path="url(#p5a3d58a272)" d="M 135.6 172.8 
L 141.52 172.8 
L 141.52 43.213478 
L 135.6 43.213478 
z
" style="fill:#b21212;stroke:#b21212;stroke-linejoin:miter;stroke-width:0.4;"/>
   </g>
   <g id="patch_19">
    <path clip-path="url(#p5a3d58a272)" d="M 141.52 172.8 
L 147.44 172.8 
L 147.44 43.213478 
L 141.52 43.213478 
z
" style="fill:#b21212;stroke:#b21212;stroke-linejoin:miter;stroke-width:0.4;"/>
   </g>
   <g id="patch_20">
    <path clip-path="url(#p5a3d58a272)" d="M 147.44 172.8 
L 153.36 172.8 
L 153.36 43.213478 
L 147.44 43.213478 
z
" style="fill:#b21212;stroke:#b21212;stroke-linejoin:miter;stroke-width:0.4;"/>
   </g>
   <g id="patch_21">
    <path clip-path="url(#p5a3d58a272)" d="M 153.36 172.8 
L 159.28 172.8 
L 159.28 43.213478 
L 153.36 43.213478 
z
" style="fill:#b21212;stroke:#b21212;stroke-linejoin:miter;stroke-width:0.4;"/>
   </g>
   <g id="patch_22">
    <path clip-path="url(#p5a3d58a272)" d="M 159.28 172.8 
L 165.2 172.8 
L 165.2 43.213478 
L 159.28 43.213478 
z
" style="fill:#b21212;stroke:#b21212;stroke-linejoin:miter;stroke-width:0.4;"/>
   </g>
   <g id="patch_23">
    <path clip-path="url(#p5a3d58a272)" d="M 165.2 172.8 
L 171.12 172.8 
L 171.12 43.213478 
L 165.2 43.213478 
z
" style="fill:#b21212;stroke:#b21212;stroke-linejoin:miter;stroke-width:0.4;"/>
   </g>
   <g id="patch_24">
    <path clip-path="url(#p5a3d58a272)" d="M 171.12 172.8 
L 177.04 172.8 
L 177.04 43.213478 
L 171.12 43.213478 
z
" style="fill:#b21212;stroke:#b21212;stroke-linejoin:miter;stroke-width:0.4;"/>
   </g>
   <g id="patch_25">
    <path clip-path="url(#p5a3d58a272)" d="M 177.04 172.8 
L 182.96 172.8 
L 182.96 172.79663 
L 177.04 172.79663 
z
" style="fill:#b21212;stroke:#b21212;stroke-linejoin:miter;stroke-width:0.4;"/>
   </g>
   <g id="patch_26">
    <path clip-path="url(#p5a3d58a272)" d="M 182.96 172.8 
L 188.88 172.8 
L 188.88 172.79663 
L 182.96 172.79663 
z
" style="fill:#b21212;stroke:#b21212;stroke-linejoin:miter;stroke-width:0.4;"/>
   </g>
   <g id="patch_27">
    <path clip-path="url(#p5a3d58a272)" d="M 188.88 172.8 
L 194.8 172.8 
L 194.8 172.79663 
L 188.88 172.79663 
z
" style="fill:#b21212;stroke:#b21212;stroke-linejoin:miter;stroke-width:0.4;"/>
   </g>
   <g id="patch_28">
    <path clip-path="url(#p5a3d58a272)" d="M 194.8 172.8 
L 200.72 172.8 
L 200.72 172.79663 
L 194.8 172.79663 
z
" style="fill:#b21212;stroke:#b21212;stroke-linejoin:miter;stroke-width:0.4;"/>
   </g>
   <g id="patch_29">
    <path clip-path="url(#p5a3d58a272)" d="M 200.72 172.8 
L 206.64 172.8 
L 206.64 172.79663 
L 200.72 172.79663 
z
" style="fill:#b21212;stroke:#b21212;stroke-linejoin:miter;stroke-width:0.4;"/>
   </g>
   <g id="patch_30">
    <path clip-path="url(#p5a3d58a272)" d="M 206.64 172.8 
L 212.56 172.8 
L 212.56 172.79663 
L 206.64 172.79663 
z
" style="fill:#b21212;stroke:#b21212;stroke-linejoin:miter;stroke-width:0.4;"/>
   </g>
   <g id="patch_31">
    <path clip-path="url(#p5a3d58a272)" d="M 212.56 172.8 
L 218.48 172.8 
L 218.48 172.79663 
L 212.56 172.79663 
z
" style="fill:#b21212;stroke:#b21212;stroke-linejoin:miter;stroke-width:0.4;"/>
   </g>
   <g id="patch_32">
    <path clip-path="url(#p5a3d58a272)" d="M 218.48 172.8 
L 224.4 172.8 
L 224.4 165.056522 
L 218.48 165.056522 
z
" style="fill:#b21212;stroke:#b21212;stroke-linejoin:miter;stroke-width:0.4;"/>
   </g>
   <g id="patch_33">
    <path clip-path="url(#p5a3d58a272)" d="M 224.4 172.8 
L 230.32 172.8 
L 230.32 139.611221 
L 224.4 139.611221 
z
" style="fill:#b21212;stroke:#b21212;stroke-linejoin:miter;stroke-width:0.4;"/>
   </g>
   <g id="patch_34">
    <path clip-path="url(#p5a3d58a272)" d="M 230.32 172.8 
L 236.24 172.8 
L 236.24 172.79663 
L 230.32 172.79663 
z
" style="fill:#b21212;stroke:#b21212;stroke-linejoin:miter;stroke-width:0.4;"/>
   </g>
   <g id="patch_35">
    <path clip-path="url(#p5a3d58a272)" d="M 236.24 172.8 
L 242.16 172.8 
L 242.16 172.79663 
L 236.24 172.79663 
z
" style="fill:#b21212;stroke:#b21212;stroke-linejoin:miter;stroke-width:0.4;"/>
   </g>
   <g id="patch_36">
    <path clip-path="url(#p5a3d58a272)" d="M 242.16 172.8 
L 248.08 172.8 
L 248.08 172.79663 
L 242.16 172.79663 
z
" style="fill:#b21212;stroke:#b21212;stroke-linejoin:miter;stroke-width:0.4;"/>
   </g>
   <g id="patch_37">
    <path clip-path="url(#p5a3d58a272)" d="M 248.08 172.8 
L 254 172.8 
L 254 172.79663 
L 248.08 172.79663 
z
" style="fill:#b21212;stroke:#b21212;stroke-linejoin:miter;stroke-width:0.4;"/>
   </g>
   <g id="patch_38">
    <path clip-path="url(#p5a3d58a272)" d="M 254 172.8 
L 259.92 172.8 
L 259.92 172.79663 
L 254 172.79663 
z
" style="fill:#b21212;stroke:#b21212;stroke-linejoin:miter;stroke-width:0.4;"/>
   </g>
   <g id="patch_39">
    <path clip-path="url(#p5a3d58a272)" d="M 259.92 172.8 
L 265.84 172.8 
L 265.84 172.79663 
L 259.92 172.79663 
z
" style="fill:#b21212;stroke:#b21212;stroke-linejoin:miter;stroke-width:0.4;"/>
   </g>
   <g id="patch_40">
    <path clip-path="url(#p5a3d58a272)" d="M 265.84 172.8 
L 271.76 172.8 
L 271.76 172.796501 
L 265.84 172.796501 
z
" style="fill:#b21212;stroke:#b21212;stroke-linejoin:miter;stroke-width:0.4;"/>
   </g>
   <g id="patch_41">
    <path clip-path="url(#p5a3d58a272)" d="M 271.76 172.8 
L 277.68 172.8 
L 277.68 165.212187 
L 271.76 165.212187 
z
" style="fill:#b21212;stroke:#b21212;stroke-linejoin:miter;stroke-width:0.4;"/>
   </g>
   <g id="patch_42">
    <path clip-path="url(#p5a3d58a272)" d="M 277.68 172.8 
L 283.6 172.8 
L 283.6 119.373124 
L 277.68 119.373124 
z
" style="fill:#b21212;stroke:#b21212;stroke-linejoin:miter;stroke-width:0.4;"/>
   </g>
   <g id="patch_43">
    <path clip-path="url(#p5a3d58a272)" d="M 283.6 172.8 
L 289.52 172.8 
L 289.52 162.374058 
L 283.6 162.374058 
z
" style="fill:#b21212;stroke:#b21212;stroke-linejoin:miter;stroke-width:0.4;"/>
   </g>
   <g id="patch_44">
    <path clip-path="url(#p5a3d58a272)" d="M 289.52 172.8 
L 295.44 172.8 
L 295.44 172.79663 
L 289.52 172.79663 
z
" style="fill:#b21212;stroke:#b21212;stroke-linejoin:miter;stroke-width:0.4;"/>
   </g>
   <g id="patch_45">
    <path clip-path="url(#p5a3d58a272)" d="M 295.44 172.8 
L 301.36 172.8 
L 301.36 172.79663 
L 295.44 172.79663 
z
" style="fill:#b21212;stroke:#b21212;stroke-linejoin:miter;stroke-width:0.4;"/>
   </g>
   <g id="patch_46">
    <path clip-path="url(#p5a3d58a272)" d="M 301.36 172.8 
L 307.28 172.8 
L 307.28 172.79663 
L 301.36 172.79663 
z
" style="fill:#b21212;stroke:#b21212;stroke-linejoin:miter;stroke-width:0.4;"/>
   </g>
   <g id="patch_47">
    <path clip-path="url(#p5a3d58a272)" d="M 307.28 172.8 
L 313.2 172.8 
L 313.2 139.217366 
L 307.28 139.217366 
z
" style="fill:#b21212;stroke:#b21212;stroke-linejoin:miter;stroke-width:0.4;"/>
   </g>
   <g id="patch_48">
    <path clip-path="url(#p5a3d58a272)" d="M 46.8 43.213478 
L 52.72 43.213478 
L 52.72 43.210109 
L 46.8 43.210109 
z
" style="fill:#92b212;stroke:#92b212;stroke-linejoin:miter;stroke-width:0.4;"/>
   </g>
   <g id="patch_49">
    <path clip-path="url(#p5a3d58a272)" d="M 52.72 43.213478 
L 58.64 43.213478 
L 58.64 43.210109 
L 52.72 43.210109 
z
" style="fill:#92b212;stroke:#92b212;stroke-linejoin:miter;stroke-width:0.4;"/>
   </g>
   <g id="patch_50">
    <path clip-path="url(#p5a3d58a272)" d="M 58.64 43.213478 
L 64.56 43.213478 
L 64.56 43.210109 
L 58.64 43.210109 
z
" style="fill:#92b212;stroke:#92b212;stroke-linejoin:miter;stroke-width:0.4;"/>
   </g>
   <g id="patch_51">
    <path clip-path="url(#p5a3d58a272)" d="M 64.56 43.213478 
L 70.48 43.213478 
L 70.48 43.210109 
L 64.56 43.210109 
z
" style="fill:#92b212;stroke:#92b212;stroke-linejoin:miter;stroke-width:0.4;"/>
   </g>
   <g id="patch_52">
    <path clip-path="url(#p5a3d58a272)" d="M 70.48 43.213478 
L 76.4 43.213478 
L 76.4 43.210109 
L 70.48 43.210109 
z
" style="fill:#92b212;stroke:#92b212;stroke-linejoin:miter;stroke-width:0.4;"/>
   </g>
   <g id="patch_53">
    <path clip-path="url(#p5a3d58a272)" d="M 76.4 43.213478 
L 82.32 43.213478 
L 82.32 43.210109 
L 76.4 43.210109 
z
" style="fill:#92b212;stroke:#92b212;stroke-linejoin:miter;stroke-width:0.4;"/>
   </g>
   <g id="patch_54">
    <path clip-path="url(#p5a3d58a272)" d="M 82.32 43.213478 
L 88.24 43.213478 
L 88.24 43.210109 
L 82.32 43.210109 
z
" style="fill:#92b212;stroke:#92b212;stroke-linejoin:miter;stroke-width:0.4;"/>
   </g>
   <g id="patch_55">
    <path clip-path="url(#p5a3d58a272)" d="M 88.24 43.213478 
L 94.16 43.213478 
L 94.16 43.210109 
L 88.24 43.210109 
z
" style="fill:#92b212;stroke:#92b212;stroke-linejoin:miter;stroke-width:0.4;"/>
   </g>
   <g id="patch_56">
    <path clip-path="url(#p5a3d58a272)" d="M 94.16 43.213478 
L 100.08 43.213478 
L 100.08 43.210109 
L 94.16 43.210109 
z
" style="fill:#92b212;stroke:#92b212;stroke-linejoin:miter;stroke-width:0.4;"/>
   </g>
   <g id="patch_57">
    <path clip-path="url(#p5a3d58a272)" d="M 100.08 43.213478 
L 106 43.213478 
L 106 43.210109 
L 100.08 43.210109 
z
" style="fill:#92b212;stroke:#92b212;stroke-linejoin:miter;stroke-width:0.4;"/>
   </g>
   <g id="patch_58">
    <path clip-path="url(#p5a3d58a272)" d="M 106 43.213478 
L 111.92 43.213478 
L 111.92 43.210109 
L 106 43.210109 
z
" style="fill:#92b212;stroke:#92b212;stroke-linejoin:miter;stroke-width:0.4;"/>
   </g>
   <g id="patch_59">
    <path clip-path="url(#p5a3d58a272)" d="M 111.92 43.213478 
L 117.84 43.213478 
L 117.84 43.210109 
L 111.92 43.210109 
z
" style="fill:#92b212;stroke:#92b212;stroke-linejoin:miter;stroke-width:0.4;"/>
   </g>
   <g id="patch_60">
    <path clip-path="url(#p5a3d58a272)" d="M 117.84 43.213478 
L 123.76 43.213478 
L 123.76 43.210109 
L 117.84 43.210109 
z
" style="fill:#92b212;stroke:#92b212;stroke-linejoin:miter;stroke-width:0.4;"/>
   </g>
   <g id="patch_61">
    <path clip-path="url(#p5a3d58a272)" d="M 123.76 43.213478 
L 129.68 43.213478 
L 129.68 43.210109 
L 123.76 43.210109 
z
" style="fill:#92b212;stroke:#92b212;stroke-linejoin:miter;stroke-width:0.4;"/>
   </g>
   <g id="patch_62">
    <path clip-path="url(#p5a3d58a272)" d="M 129.68 43.213478 
L 135.6 43.213478 
L 135.6 43.210109 
L 129.68 43.210109 
z
" style="fill:#92b212;stroke:#92b212;stroke-linejoin:miter;stroke-width:0.4;"/>
   </g>
   <g id="patch_63">
    <path clip-path="url(#p5a3d58a272)" d="M 135.6 43.213478 
L 141.52 43.213478 
L 141.52 43.210109 
L 135.6 43.210109 
z
" style="fill:#92b212;stroke:#92b212;stroke-linejoin:miter;stroke-width:0.4;"/>
   </g>
   <g id="patch_64">
    <path clip-path="url(#p5a3d58a272)" d="M 141.52 43.213478 
L 147.44 43.213478 
L 147.44 43.210109 
L 141.52 43.210109 
z
" style="fill:#92b212;stroke:#92b212;stroke-linejoin:miter;stroke-width:0.4;"/>
   </g>
   <g id="patch_65">
    <path clip-path="url(#p5a3d58a272)" d="M 147.44 43.213478 
L 153.36 43.213478 
L 153.36 43.210109 
L 147.44 43.210109 
z
" style="fill:#92b212;stroke:#92b212;stroke-linejoin:miter;stroke-width:0.4;"/>
   </g>
   <g id="patch_66">
    <path clip-path="url(#p5a3d58a272)" d="M 153.36 43.213478 
L 159.28 43.213478 
L 159.28 43.210109 
L 153.36 43.210109 
z
" style="fill:#92b212;stroke:#92b212;stroke-linejoin:miter;stroke-width:0.4;"/>
   </g>
   <g id="patch_67">
    <path clip-path="url(#p5a3d58a272)" d="M 159.28 43.213478 
L 165.2 43.213478 
L 165.2 43.210109 
L 159.28 43.210109 
z
" style="fill:#92b212;stroke:#92b212;stroke-linejoin:miter;stroke-width:0.4;"/>
   </g>
   <g id="patch_68">
    <path clip-path="url(#p5a3d58a272)" d="M 165.2 43.213478 
L 171.12 43.213478 
L 171.12 43.210109 
L 165.2 43.210109 
z
" style="fill:#92b212;stroke:#92b212;stroke-linejoin:miter;stroke-width:0.4;"/>
   </g>
   <g id="patch_69">
    <path clip-path="url(#p5a3d58a272)" d="M 171.12 43.213478 
L 177.04 43.213478 
L 177.04 43.210109 
L 171.12 43.210109 
z
" style="fill:#92b212;stroke:#92b212;stroke-linejoin:miter;stroke-width:0.4;"/>
   </g>
   <g id="patch_70">
    <path clip-path="url(#p5a3d58a272)" d="M 177.04 172.79663 
L 182.96 172.79663 
L 182.96 43.210109 
L 177.04 43.210109 
z
" style="fill:#92b212;stroke:#92b212;stroke-linejoin:miter;stroke-width:0.4;"/>
   </g>
   <g id="patch_71">
    <path clip-path="url(#p5a3d58a272)" d="M 182.96 172.79663 
L 188.88 172.79663 
L 188.88 43.210109 
L 182.96 43.210109 
z
" style="fill:#92b212;stroke:#92b212;stroke-linejoin:miter;stroke-width:0.4;"/>
   </g>
   <g id="patch_72">
    <path clip-path="url(#p5a3d58a272)" d="M 188.88 172.79663 
L 194.8 172.79663 
L 194.8 43.210109 
L 188.88 43.210109 
z
" style="fill:#92b212;stroke:#92b212;stroke-linejoin:miter;stroke-width:0.4;"/>
   </g>
   <g id="patch_73">
    <path clip-path="url(#p5a3d58a272)" d="M 194.8 172.79663 
L 200.72 172.79663 
L 200.72 43.210109 
L 194.8 43.210109 
z
" style="fill:#92b212;stroke:#92b212;stroke-linejoin:miter;stroke-width:0.4;"/>
   </g>
   <g id="patch_74">
    <path clip-path="url(#p5a3d58a272)" d="M 200.72 172.79663 
L 206.64 172.79663 
L 206.64 43.210109 
L 200.72 43.210109 
z
" style="fill:#92b212;stroke:#92b212;stroke-linejoin:miter;stroke-width:0.4;"/>
   </g>
   <g id="patch_75">
    <path clip-path="url(#p5a3d58a272)" d="M 206.64 172.79663 
L 212.56 172.79663 
L 212.56 172.793261 
L 206.64 172.793261 
z
" style="fill:#92b212;stroke:#92b212;stroke-linejoin:miter;stroke-width:0.4;"/>
   </g>
   <g id="patch_76">
    <path clip-path="url(#p5a3d58a272)" d="M 212.56 172.79663 
L 218.48 172.79663 
L 218.48 172.793261 
L 212.56 172.793261 
z
" style="fill:#92b212;stroke:#92b212;stroke-linejoin:miter;stroke-width:0.4;"/>
   </g>
   <g id="patch_77">
    <path clip-path="url(#p5a3d58a272)" d="M 218.48 165.056522 
L 224.4 165.056522 
L 224.4 165.053152 
L 218.48 165.053152 
z
" style="fill:#92b212;stroke:#92b212;stroke-linejoin:miter;stroke-width:0.4;"/>
   </g>
   <g id="patch_78">
    <path clip-path="url(#p5a3d58a272)" d="M 224.4 139.611221 
L 230.32 139.611221 
L 230.32 139.607852 
L 224.4 139.607852 
z
" style="fill:#92b212;stroke:#92b212;stroke-linejoin:miter;stroke-width:0.4;"/>
   </g>
   <g id="patch_79">
    <path clip-path="url(#p5a3d58a272)" d="M 230.32 172.79663 
L 236.24 172.79663 
L 236.24 172.793261 
L 230.32 172.793261 
z
" style="fill:#92b212;stroke:#92b212;stroke-linejoin:miter;stroke-width:0.4;"/>
   </g>
   <g id="patch_80">
    <path clip-path="url(#p5a3d58a272)" d="M 236.24 172.79663 
L 242.16 172.79663 
L 242.16 172.793261 
L 236.24 172.793261 
z
" style="fill:#92b212;stroke:#92b212;stroke-linejoin:miter;stroke-width:0.4;"/>
   </g>
   <g id="patch_81">
    <path clip-path="url(#p5a3d58a272)" d="M 242.16 172.79663 
L 248.08 172.79663 
L 248.08 172.793261 
L 242.16 172.793261 
z
" style="fill:#92b212;stroke:#92b212;stroke-linejoin:miter;stroke-width:0.4;"/>
   </g>
   <g id="patch_82">
    <path clip-path="url(#p5a3d58a272)" d="M 248.08 172.79663 
L 254 172.79663 
L 254 172.793261 
L 248.08 172.793261 
z
" style="fill:#92b212;stroke:#92b212;stroke-linejoin:miter;stroke-width:0.4;"/>
   </g>
   <g id="patch_83">
    <path clip-path="url(#p5a3d58a272)" d="M 254 172.79663 
L 259.92 172.79663 
L 259.92 172.793261 
L 254 172.793261 
z
" style="fill:#92b212;stroke:#92b212;stroke-linejoin:miter;stroke-width:0.4;"/>
   </g>
   <g id="patch_84">
    <path clip-path="url(#p5a3d58a272)" d="M 259.92 172.79663 
L 265.84 172.79663 
L 265.84 172.793261 
L 259.92 172.793261 
z
" style="fill:#92b212;stroke:#92b212;stroke-linejoin:miter;stroke-width:0.4;"/>
   </g>
   <g id="patch_85">
    <path clip-path="url(#p5a3d58a272)" d="M 265.84 172.796501 
L 271.76 172.796501 
L 271.76 162.478127 
L 265.84 162.478127 
z
" style="fill:#92b212;stroke:#92b212;stroke-linejoin:miter;stroke-width:0.4;"/>
   </g>
   <g id="patch_86">
    <path clip-path="url(#p5a3d58a272)" d="M 271.76 165.212187 
L 277.68 165.212187 
L 277.68 157.643814 
L 271.76 157.643814 
z
" style="fill:#92b212;stroke:#92b212;stroke-linejoin:miter;stroke-width:0.4;"/>
   </g>
   <g id="patch_87">
    <path clip-path="url(#p5a3d58a272)" d="M 277.68 119.373124 
L 283.6 119.373124 
L 283.6 119.369755 
L 277.68 119.369755 
z
" style="fill:#92b212;stroke:#92b212;stroke-linejoin:miter;stroke-width:0.4;"/>
   </g>
   <g id="patch_88">
    <path clip-path="url(#p5a3d58a272)" d="M 283.6 162.374058 
L 289.52 162.374058 
L 289.52 156.620331 
L 283.6 156.620331 
z
" style="fill:#92b212;stroke:#92b212;stroke-linejoin:miter;stroke-width:0.4;"/>
   </g>
   <g id="patch_89">
    <path clip-path="url(#p5a3d58a272)" d="M 289.52 172.79663 
L 295.44 172.79663 
L 295.44 172.793261 
L 289.52 172.793261 
z
" style="fill:#92b212;stroke:#92b212;stroke-linejoin:miter;stroke-width:0.4;"/>
   </g>
   <g id="patch_90">
    <path clip-path="url(#p5a3d58a272)" d="M 295.44 172.79663 
L 301.36 172.79663 
L 301.36 172.793261 
L 295.44 172.793261 
z
" style="fill:#92b212;stroke:#92b212;stroke-linejoin:miter;stroke-width:0.4;"/>
   </g>
   <g id="patch_91">
    <path clip-path="url(#p5a3d58a272)" d="M 301.36 172.79663 
L 307.28 172.79663 
L 307.28 172.793261 
L 301.36 172.793261 
z
" style="fill:#92b212;stroke:#92b212;stroke-linejoin:miter;stroke-width:0.4;"/>
   </g>
   <g id="patch_92">
    <path clip-path="url(#p5a3d58a272)" d="M 307.28 139.217366 
L 313.2 139.217366 
L 313.2 139.213997 
L 307.28 139.213997 
z
" style="fill:#92b212;stroke:#92b212;stroke-linejoin:miter;stroke-width:0.4;"/>
   </g>
   <g id="patch_93">
    <path clip-path="url(#p5a3d58a272)" d="M 46.8 43.210109 
L 52.72 43.210109 
L 52.72 43.206739 
L 46.8 43.206739 
z
" style="fill:#12b252;stroke:#12b252;stroke-linejoin:miter;stroke-width:0.4;"/>
   </g>
   <g id="patch_94">
    <path clip-path="url(#p5a3d58a272)" d="M 52.72 43.210109 
L 58.64 43.210109 
L 58.64 43.206739 
L 52.72 43.206739 
z
" style="fill:#12b252;stroke:#12b252;stroke-linejoin:miter;stroke-width:0.4;"/>
   </g>
   <g id="patch_95">
    <path clip-path="url(#p5a3d58a272)" d="M 58.64 43.210109 
L 64.56 43.210109 
L 64.56 43.206739 
L 58.64 43.206739 
z
" style="fill:#12b252;stroke:#12b252;stroke-linejoin:miter;stroke-width:0.4;"/>
   </g>
   <g id="patch_96">
    <path clip-path="url(#p5a3d58a272)" d="M 64.56 43.210109 
L 70.48 43.210109 
L 70.48 43.206739 
L 64.56 43.206739 
z
" style="fill:#12b252;stroke:#12b252;stroke-linejoin:miter;stroke-width:0.4;"/>
   </g>
   <g id="patch_97">
    <path clip-path="url(#p5a3d58a272)" d="M 70.48 43.210109 
L 76.4 43.210109 
L 76.4 43.206739 
L 70.48 43.206739 
z
" style="fill:#12b252;stroke:#12b252;stroke-linejoin:miter;stroke-width:0.4;"/>
   </g>
   <g id="patch_98">
    <path clip-path="url(#p5a3d58a272)" d="M 76.4 43.210109 
L 82.32 43.210109 
L 82.32 43.206739 
L 76.4 43.206739 
z
" style="fill:#12b252;stroke:#12b252;stroke-linejoin:miter;stroke-width:0.4;"/>
   </g>
   <g id="patch_99">
    <path clip-path="url(#p5a3d58a272)" d="M 82.32 43.210109 
L 88.24 43.210109 
L 88.24 43.206739 
L 82.32 43.206739 
z
" style="fill:#12b252;stroke:#12b252;stroke-linejoin:miter;stroke-width:0.4;"/>
   </g>
   <g id="patch_100">
    <path clip-path="url(#p5a3d58a272)" d="M 88.24 43.210109 
L 94.16 43.210109 
L 94.16 43.206739 
L 88.24 43.206739 
z
" style="fill:#12b252;stroke:#12b252;stroke-linejoin:miter;stroke-width:0.4;"/>
   </g>
   <g id="patch_101">
    <path clip-path="url(#p5a3d58a272)" d="M 94.16 43.210109 
L 100.08 43.210109 
L 100.08 43.206739 
L 94.16 43.206739 
z
" style="fill:#12b252;stroke:#12b252;stroke-linejoin:miter;stroke-width:0.4;"/>
   </g>
   <g id="patch_102">
    <path clip-path="url(#p5a3d58a272)" d="M 100.08 43.210109 
L 106 43.210109 
L 106 43.206739 
L 100.08 43.206739 
z
" style="fill:#12b252;stroke:#12b252;stroke-linejoin:miter;stroke-width:0.4;"/>
   </g>
   <g id="patch_103">
    <path clip-path="url(#p5a3d58a272)" d="M 106 43.210109 
L 111.92 43.210109 
L 111.92 43.206739 
L 106 43.206739 
z
" style="fill:#12b252;stroke:#12b252;stroke-linejoin:miter;stroke-width:0.4;"/>
   </g>
   <g id="patch_104">
    <path clip-path="url(#p5a3d58a272)" d="M 111.92 43.210109 
L 117.84 43.210109 
L 117.84 43.206739 
L 111.92 43.206739 
z
" style="fill:#12b252;stroke:#12b252;stroke-linejoin:miter;stroke-width:0.4;"/>
   </g>
   <g id="patch_105">
    <path clip-path="url(#p5a3d58a272)" d="M 117.84 43.210109 
L 123.76 43.210109 
L 123.76 43.206739 
L 117.84 43.206739 
z
" style="fill:#12b252;stroke:#12b252;stroke-linejoin:miter;stroke-width:0.4;"/>
   </g>
   <g id="patch_106">
    <path clip-path="url(#p5a3d58a272)" d="M 123.76 43.210109 
L 129.68 43.210109 
L 129.68 43.206739 
L 123.76 43.206739 
z
" style="fill:#12b252;stroke:#12b252;stroke-linejoin:miter;stroke-width:0.4;"/>
   </g>
   <g id="patch_107">
    <path clip-path="url(#p5a3d58a272)" d="M 129.68 43.210109 
L 135.6 43.210109 
L 135.6 43.206739 
L 129.68 43.206739 
z
" style="fill:#12b252;stroke:#12b252;stroke-linejoin:miter;stroke-width:0.4;"/>
   </g>
   <g id="patch_108">
    <path clip-path="url(#p5a3d58a272)" d="M 135.6 43.210109 
L 141.52 43.210109 
L 141.52 43.206739 
L 135.6 43.206739 
z
" style="fill:#12b252;stroke:#12b252;stroke-linejoin:miter;stroke-width:0.4;"/>
   </g>
   <g id="patch_109">
    <path clip-path="url(#p5a3d58a272)" d="M 141.52 43.210109 
L 147.44 43.210109 
L 147.44 43.206739 
L 141.52 43.206739 
z
" style="fill:#12b252;stroke:#12b252;stroke-linejoin:miter;stroke-width:0.4;"/>
   </g>
   <g id="patch_110">
    <path clip-path="url(#p5a3d58a272)" d="M 147.44 43.210109 
L 153.36 43.210109 
L 153.36 43.206739 
L 147.44 43.206739 
z
" style="fill:#12b252;stroke:#12b252;stroke-linejoin:miter;stroke-width:0.4;"/>
   </g>
   <g id="patch_111">
    <path clip-path="url(#p5a3d58a272)" d="M 153.36 43.210109 
L 159.28 43.210109 
L 159.28 43.206739 
L 153.36 43.206739 
z
" style="fill:#12b252;stroke:#12b252;stroke-linejoin:miter;stroke-width:0.4;"/>
   </g>
   <g id="patch_112">
    <path clip-path="url(#p5a3d58a272)" d="M 159.28 43.210109 
L 165.2 43.210109 
L 165.2 43.206739 
L 159.28 43.206739 
z
" style="fill:#12b252;stroke:#12b252;stroke-linejoin:miter;stroke-width:0.4;"/>
   </g>
   <g id="patch_113">
    <path clip-path="url(#p5a3d58a272)" d="M 165.2 43.210109 
L 171.12 43.210109 
L 171.12 43.206739 
L 165.2 43.206739 
z
" style="fill:#12b252;stroke:#12b252;stroke-linejoin:miter;stroke-width:0.4;"/>
   </g>
   <g id="patch_114">
    <path clip-path="url(#p5a3d58a272)" d="M 171.12 43.210109 
L 177.04 43.210109 
L 177.04 43.206739 
L 171.12 43.206739 
z
" style="fill:#12b252;stroke:#12b252;stroke-linejoin:miter;stroke-width:0.4;"/>
   </g>
   <g id="patch_115">
    <path clip-path="url(#p5a3d58a272)" d="M 177.04 43.210109 
L 182.96 43.210109 
L 182.96 43.206739 
L 177.04 43.206739 
z
" style="fill:#12b252;stroke:#12b252;stroke-linejoin:miter;stroke-width:0.4;"/>
   </g>
   <g id="patch_116">
    <path clip-path="url(#p5a3d58a272)" d="M 182.96 43.210109 
L 188.88 43.210109 
L 188.88 43.206739 
L 182.96 43.206739 
z
" style="fill:#12b252;stroke:#12b252;stroke-linejoin:miter;stroke-width:0.4;"/>
   </g>
   <g id="patch_117">
    <path clip-path="url(#p5a3d58a272)" d="M 188.88 43.210109 
L 194.8 43.210109 
L 194.8 43.206739 
L 188.88 43.206739 
z
" style="fill:#12b252;stroke:#12b252;stroke-linejoin:miter;stroke-width:0.4;"/>
   </g>
   <g id="patch_118">
    <path clip-path="url(#p5a3d58a272)" d="M 194.8 43.210109 
L 200.72 43.210109 
L 200.72 43.206739 
L 194.8 43.206739 
z
" style="fill:#12b252;stroke:#12b252;stroke-linejoin:miter;stroke-width:0.4;"/>
   </g>
   <g id="patch_119">
    <path clip-path="url(#p5a3d58a272)" d="M 200.72 43.210109 
L 206.64 43.210109 
L 206.64 43.206739 
L 200.72 43.206739 
z
" style="fill:#12b252;stroke:#12b252;stroke-linejoin:miter;stroke-width:0.4;"/>
   </g>
   <g id="patch_120">
    <path clip-path="url(#p5a3d58a272)" d="M 206.64 172.793261 
L 212.56 172.793261 
L 212.56 43.206739 
L 206.64 43.206739 
z
" style="fill:#12b252;stroke:#12b252;stroke-linejoin:miter;stroke-width:0.4;"/>
   </g>
   <g id="patch_121">
    <path clip-path="url(#p5a3d58a272)" d="M 212.56 172.793261 
L 218.48 172.793261 
L 218.48 43.206739 
L 212.56 43.206739 
z
" style="fill:#12b252;stroke:#12b252;stroke-linejoin:miter;stroke-width:0.4;"/>
   </g>
   <g id="patch_122">
    <path clip-path="url(#p5a3d58a272)" d="M 218.48 165.053152 
L 224.4 165.053152 
L 224.4 43.206739 
L 218.48 43.206739 
z
" style="fill:#12b252;stroke:#12b252;stroke-linejoin:miter;stroke-width:0.4;"/>
   </g>
   <g id="patch_123">
    <path clip-path="url(#p5a3d58a272)" d="M 224.4 139.607852 
L 230.32 139.607852 
L 230.32 43.206739 
L 224.4 43.206739 
z
" style="fill:#12b252;stroke:#12b252;stroke-linejoin:miter;stroke-width:0.4;"/>
   </g>
   <g id="patch_124">
    <path clip-path="url(#p5a3d58a272)" d="M 230.32 172.793261 
L 236.24 172.793261 
L 236.24 172.789891 
L 230.32 172.789891 
z
" style="fill:#12b252;stroke:#12b252;stroke-linejoin:miter;stroke-width:0.4;"/>
   </g>
   <g id="patch_125">
    <path clip-path="url(#p5a3d58a272)" d="M 236.24 172.793261 
L 242.16 172.793261 
L 242.16 172.789891 
L 236.24 172.789891 
z
" style="fill:#12b252;stroke:#12b252;stroke-linejoin:miter;stroke-width:0.4;"/>
   </g>
   <g id="patch_126">
    <path clip-path="url(#p5a3d58a272)" d="M 242.16 172.793261 
L 248.08 172.793261 
L 248.08 172.789891 
L 242.16 172.789891 
z
" style="fill:#12b252;stroke:#12b252;stroke-linejoin:miter;stroke-width:0.4;"/>
   </g>
   <g id="patch_127">
    <path clip-path="url(#p5a3d58a272)" d="M 248.08 172.793261 
L 254 172.793261 
L 254 172.789891 
L 248.08 172.789891 
z
" style="fill:#12b252;stroke:#12b252;stroke-linejoin:miter;stroke-width:0.4;"/>
   </g>
   <g id="patch_128">
    <path clip-path="url(#p5a3d58a272)" d="M 254 172.793261 
L 259.92 172.793261 
L 259.92 172.789891 
L 254 172.789891 
z
" style="fill:#12b252;stroke:#12b252;stroke-linejoin:miter;stroke-width:0.4;"/>
   </g>
   <g id="patch_129">
    <path clip-path="url(#p5a3d58a272)" d="M 259.92 172.793261 
L 265.84 172.793261 
L 265.84 172.789891 
L 259.92 172.789891 
z
" style="fill:#12b252;stroke:#12b252;stroke-linejoin:miter;stroke-width:0.4;"/>
   </g>
   <g id="patch_130">
    <path clip-path="url(#p5a3d58a272)" d="M 265.84 162.478127 
L 271.76 162.478127 
L 271.76 162.474628 
L 265.84 162.474628 
z
" style="fill:#12b252;stroke:#12b252;stroke-linejoin:miter;stroke-width:0.4;"/>
   </g>
   <g id="patch_131">
    <path clip-path="url(#p5a3d58a272)" d="M 271.76 157.643814 
L 277.68 157.643814 
L 277.68 157.640444 
L 271.76 157.640444 
z
" style="fill:#12b252;stroke:#12b252;stroke-linejoin:miter;stroke-width:0.4;"/>
   </g>
   <g id="patch_132">
    <path clip-path="url(#p5a3d58a272)" d="M 277.68 119.369755 
L 283.6 119.369755 
L 283.6 119.366385 
L 277.68 119.366385 
z
" style="fill:#12b252;stroke:#12b252;stroke-linejoin:miter;stroke-width:0.4;"/>
   </g>
   <g id="patch_133">
    <path clip-path="url(#p5a3d58a272)" d="M 283.6 156.620331 
L 289.52 156.620331 
L 289.52 109.021055 
L 283.6 109.021055 
z
" style="fill:#12b252;stroke:#12b252;stroke-linejoin:miter;stroke-width:0.4;"/>
   </g>
   <g id="patch_134">
    <path clip-path="url(#p5a3d58a272)" d="M 289.52 172.793261 
L 295.44 172.793261 
L 295.44 172.789891 
L 289.52 172.789891 
z
" style="fill:#12b252;stroke:#12b252;stroke-linejoin:miter;stroke-width:0.4;"/>
   </g>
   <g id="patch_135">
    <path clip-path="url(#p5a3d58a272)" d="M 295.44 172.793261 
L 301.36 172.793261 
L 301.36 172.789891 
L 295.44 172.789891 
z
" style="fill:#12b252;stroke:#12b252;stroke-linejoin:miter;stroke-width:0.4;"/>
   </g>
   <g id="patch_136">
    <path clip-path="url(#p5a3d58a272)" d="M 301.36 172.793261 
L 307.28 172.793261 
L 307.28 172.789891 
L 301.36 172.789891 
z
" style="fill:#12b252;stroke:#12b252;stroke-linejoin:miter;stroke-width:0.4;"/>
   </g>
   <g id="patch_137">
    <path clip-path="url(#p5a3d58a272)" d="M 307.28 139.213997 
L 313.2 139.213997 
L 313.2 139.210627 
L 307.28 139.210627 
z
" style="fill:#12b252;stroke:#12b252;stroke-linejoin:miter;stroke-width:0.4;"/>
   </g>
   <g id="patch_138">
    <path clip-path="url(#p5a3d58a272)" d="M 46.8 43.206739 
L 52.72 43.206739 
L 52.72 43.20337 
L 46.8 43.20337 
z
" style="fill:#1252b2;stroke:#1252b2;stroke-linejoin:miter;stroke-width:0.4;"/>
   </g>
   <g id="patch_139">
    <path clip-path="url(#p5a3d58a272)" d="M 52.72 43.206739 
L 58.64 43.206739 
L 58.64 43.20337 
L 52.72 43.20337 
z
" style="fill:#1252b2;stroke:#1252b2;stroke-linejoin:miter;stroke-width:0.4;"/>
   </g>
   <g id="patch_140">
    <path clip-path="url(#p5a3d58a272)" d="M 58.64 43.206739 
L 64.56 43.206739 
L 64.56 43.20337 
L 58.64 43.20337 
z
" style="fill:#1252b2;stroke:#1252b2;stroke-linejoin:miter;stroke-width:0.4;"/>
   </g>
   <g id="patch_141">
    <path clip-path="url(#p5a3d58a272)" d="M 64.56 43.206739 
L 70.48 43.206739 
L 70.48 43.20337 
L 64.56 43.20337 
z
" style="fill:#1252b2;stroke:#1252b2;stroke-linejoin:miter;stroke-width:0.4;"/>
   </g>
   <g id="patch_142">
    <path clip-path="url(#p5a3d58a272)" d="M 70.48 43.206739 
L 76.4 43.206739 
L 76.4 43.20337 
L 70.48 43.20337 
z
" style="fill:#1252b2;stroke:#1252b2;stroke-linejoin:miter;stroke-width:0.4;"/>
   </g>
   <g id="patch_143">
    <path clip-path="url(#p5a3d58a272)" d="M 76.4 43.206739 
L 82.32 43.206739 
L 82.32 43.20337 
L 76.4 43.20337 
z
" style="fill:#1252b2;stroke:#1252b2;stroke-linejoin:miter;stroke-width:0.4;"/>
   </g>
   <g id="patch_144">
    <path clip-path="url(#p5a3d58a272)" d="M 82.32 43.206739 
L 88.24 43.206739 
L 88.24 43.20337 
L 82.32 43.20337 
z
" style="fill:#1252b2;stroke:#1252b2;stroke-linejoin:miter;stroke-width:0.4;"/>
   </g>
   <g id="patch_145">
    <path clip-path="url(#p5a3d58a272)" d="M 88.24 43.206739 
L 94.16 43.206739 
L 94.16 43.20337 
L 88.24 43.20337 
z
" style="fill:#1252b2;stroke:#1252b2;stroke-linejoin:miter;stroke-width:0.4;"/>
   </g>
   <g id="patch_146">
    <path clip-path="url(#p5a3d58a272)" d="M 94.16 43.206739 
L 100.08 43.206739 
L 100.08 43.20337 
L 94.16 43.20337 
z
" style="fill:#1252b2;stroke:#1252b2;stroke-linejoin:miter;stroke-width:0.4;"/>
   </g>
   <g id="patch_147">
    <path clip-path="url(#p5a3d58a272)" d="M 100.08 43.206739 
L 106 43.206739 
L 106 43.20337 
L 100.08 43.20337 
z
" style="fill:#1252b2;stroke:#1252b2;stroke-linejoin:miter;stroke-width:0.4;"/>
   </g>
   <g id="patch_148">
    <path clip-path="url(#p5a3d58a272)" d="M 106 43.206739 
L 111.92 43.206739 
L 111.92 43.20337 
L 106 43.20337 
z
" style="fill:#1252b2;stroke:#1252b2;stroke-linejoin:miter;stroke-width:0.4;"/>
   </g>
   <g id="patch_149">
    <path clip-path="url(#p5a3d58a272)" d="M 111.92 43.206739 
L 117.84 43.206739 
L 117.84 43.20337 
L 111.92 43.20337 
z
" style="fill:#1252b2;stroke:#1252b2;stroke-linejoin:miter;stroke-width:0.4;"/>
   </g>
   <g id="patch_150">
    <path clip-path="url(#p5a3d58a272)" d="M 117.84 43.206739 
L 123.76 43.206739 
L 123.76 43.20337 
L 117.84 43.20337 
z
" style="fill:#1252b2;stroke:#1252b2;stroke-linejoin:miter;stroke-width:0.4;"/>
   </g>
   <g id="patch_151">
    <path clip-path="url(#p5a3d58a272)" d="M 123.76 43.206739 
L 129.68 43.206739 
L 129.68 43.20337 
L 123.76 43.20337 
z
" style="fill:#1252b2;stroke:#1252b2;stroke-linejoin:miter;stroke-width:0.4;"/>
   </g>
   <g id="patch_152">
    <path clip-path="url(#p5a3d58a272)" d="M 129.68 43.206739 
L 135.6 43.206739 
L 135.6 43.20337 
L 129.68 43.20337 
z
" style="fill:#1252b2;stroke:#1252b2;stroke-linejoin:miter;stroke-width:0.4;"/>
   </g>
   <g id="patch_153">
    <path clip-path="url(#p5a3d58a272)" d="M 135.6 43.206739 
L 141.52 43.206739 
L 141.52 43.20337 
L 135.6 43.20337 
z
" style="fill:#1252b2;stroke:#1252b2;stroke-linejoin:miter;stroke-width:0.4;"/>
   </g>
   <g id="patch_154">
    <path clip-path="url(#p5a3d58a272)" d="M 141.52 43.206739 
L 147.44 43.206739 
L 147.44 43.20337 
L 141.52 43.20337 
z
" style="fill:#1252b2;stroke:#1252b2;stroke-linejoin:miter;stroke-width:0.4;"/>
   </g>
   <g id="patch_155">
    <path clip-path="url(#p5a3d58a272)" d="M 147.44 43.206739 
L 153.36 43.206739 
L 153.36 43.20337 
L 147.44 43.20337 
z
" style="fill:#1252b2;stroke:#1252b2;stroke-linejoin:miter;stroke-width:0.4;"/>
   </g>
   <g id="patch_156">
    <path clip-path="url(#p5a3d58a272)" d="M 153.36 43.206739 
L 159.28 43.206739 
L 159.28 43.20337 
L 153.36 43.20337 
z
" style="fill:#1252b2;stroke:#1252b2;stroke-linejoin:miter;stroke-width:0.4;"/>
   </g>
   <g id="patch_157">
    <path clip-path="url(#p5a3d58a272)" d="M 159.28 43.206739 
L 165.2 43.206739 
L 165.2 43.20337 
L 159.28 43.20337 
z
" style="fill:#1252b2;stroke:#1252b2;stroke-linejoin:miter;stroke-width:0.4;"/>
   </g>
   <g id="patch_158">
    <path clip-path="url(#p5a3d58a272)" d="M 165.2 43.206739 
L 171.12 43.206739 
L 171.12 43.20337 
L 165.2 43.20337 
z
" style="fill:#1252b2;stroke:#1252b2;stroke-linejoin:miter;stroke-width:0.4;"/>
   </g>
   <g id="patch_159">
    <path clip-path="url(#p5a3d58a272)" d="M 171.12 43.206739 
L 177.04 43.206739 
L 177.04 43.20337 
L 171.12 43.20337 
z
" style="fill:#1252b2;stroke:#1252b2;stroke-linejoin:miter;stroke-width:0.4;"/>
   </g>
   <g id="patch_160">
    <path clip-path="url(#p5a3d58a272)" d="M 177.04 43.206739 
L 182.96 43.206739 
L 182.96 43.20337 
L 177.04 43.20337 
z
" style="fill:#1252b2;stroke:#1252b2;stroke-linejoin:miter;stroke-width:0.4;"/>
   </g>
   <g id="patch_161">
    <path clip-path="url(#p5a3d58a272)" d="M 182.96 43.206739 
L 188.88 43.206739 
L 188.88 43.20337 
L 182.96 43.20337 
z
" style="fill:#1252b2;stroke:#1252b2;stroke-linejoin:miter;stroke-width:0.4;"/>
   </g>
   <g id="patch_162">
    <path clip-path="url(#p5a3d58a272)" d="M 188.88 43.206739 
L 194.8 43.206739 
L 194.8 43.20337 
L 188.88 43.20337 
z
" style="fill:#1252b2;stroke:#1252b2;stroke-linejoin:miter;stroke-width:0.4;"/>
   </g>
   <g id="patch_163">
    <path clip-path="url(#p5a3d58a272)" d="M 194.8 43.206739 
L 200.72 43.206739 
L 200.72 43.20337 
L 194.8 43.20337 
z
" style="fill:#1252b2;stroke:#1252b2;stroke-linejoin:miter;stroke-width:0.4;"/>
   </g>
   <g id="patch_164">
    <path clip-path="url(#p5a3d58a272)" d="M 200.72 43.206739 
L 206.64 43.206739 
L 206.64 43.20337 
L 200.72 43.20337 
z
" style="fill:#1252b2;stroke:#1252b2;stroke-linejoin:miter;stroke-width:0.4;"/>
   </g>
   <g id="patch_165">
    <path clip-path="url(#p5a3d58a272)" d="M 206.64 43.206739 
L 212.56 43.206739 
L 212.56 43.20337 
L 206.64 43.20337 
z
" style="fill:#1252b2;stroke:#1252b2;stroke-linejoin:miter;stroke-width:0.4;"/>
   </g>
   <g id="patch_166">
    <path clip-path="url(#p5a3d58a272)" d="M 212.56 43.206739 
L 218.48 43.206739 
L 218.48 43.20337 
L 212.56 43.20337 
z
" style="fill:#1252b2;stroke:#1252b2;stroke-linejoin:miter;stroke-width:0.4;"/>
   </g>
   <g id="patch_167">
    <path clip-path="url(#p5a3d58a272)" d="M 218.48 43.206739 
L 224.4 43.206739 
L 224.4 43.20337 
L 218.48 43.20337 
z
" style="fill:#1252b2;stroke:#1252b2;stroke-linejoin:miter;stroke-width:0.4;"/>
   </g>
   <g id="patch_168">
    <path clip-path="url(#p5a3d58a272)" d="M 224.4 43.206739 
L 230.32 43.206739 
L 230.32 43.20337 
L 224.4 43.20337 
z
" style="fill:#1252b2;stroke:#1252b2;stroke-linejoin:miter;stroke-width:0.4;"/>
   </g>
   <g id="patch_169">
    <path clip-path="url(#p5a3d58a272)" d="M 230.32 172.789891 
L 236.24 172.789891 
L 236.24 43.20337 
L 230.32 43.20337 
z
" style="fill:#1252b2;stroke:#1252b2;stroke-linejoin:miter;stroke-width:0.4;"/>
   </g>
   <g id="patch_170">
    <path clip-path="url(#p5a3d58a272)" d="M 236.24 172.789891 
L 242.16 172.789891 
L 242.16 43.20337 
L 236.24 43.20337 
z
" style="fill:#1252b2;stroke:#1252b2;stroke-linejoin:miter;stroke-width:0.4;"/>
   </g>
   <g id="patch_171">
    <path clip-path="url(#p5a3d58a272)" d="M 242.16 172.789891 
L 248.08 172.789891 
L 248.08 43.20337 
L 242.16 43.20337 
z
" style="fill:#1252b2;stroke:#1252b2;stroke-linejoin:miter;stroke-width:0.4;"/>
   </g>
   <g id="patch_172">
    <path clip-path="url(#p5a3d58a272)" d="M 248.08 172.789891 
L 254 172.789891 
L 254 43.20337 
L 248.08 43.20337 
z
" style="fill:#1252b2;stroke:#1252b2;stroke-linejoin:miter;stroke-width:0.4;"/>
   </g>
   <g id="patch_173">
    <path clip-path="url(#p5a3d58a272)" d="M 254 172.789891 
L 259.92 172.789891 
L 259.92 43.20337 
L 254 43.20337 
z
" style="fill:#1252b2;stroke:#1252b2;stroke-linejoin:miter;stroke-width:0.4;"/>
   </g>
   <g id="patch_174">
    <path clip-path="url(#p5a3d58a272)" d="M 259.92 172.789891 
L 265.84 172.789891 
L 265.84 43.20337 
L 259.92 43.20337 
z
" style="fill:#1252b2;stroke:#1252b2;stroke-linejoin:miter;stroke-width:0.4;"/>
   </g>
   <g id="patch_175">
    <path clip-path="url(#p5a3d58a272)" d="M 265.84 162.474628 
L 271.76 162.474628 
L 271.76 55.885779 
L 265.84 55.885779 
z
" style="fill:#1252b2;stroke:#1252b2;stroke-linejoin:miter;stroke-width:0.4;"/>
   </g>
   <g id="patch_176">
    <path clip-path="url(#p5a3d58a272)" d="M 271.76 157.640444 
L 277.68 157.640444 
L 277.68 53.038963 
L 271.76 53.038963 
z
" style="fill:#1252b2;stroke:#1252b2;stroke-linejoin:miter;stroke-width:0.4;"/>
   </g>
   <g id="patch_177">
    <path clip-path="url(#p5a3d58a272)" d="M 277.68 119.366385 
L 283.6 119.366385 
L 283.6 43.20337 
L 277.68 43.20337 
z
" style="fill:#1252b2;stroke:#1252b2;stroke-linejoin:miter;stroke-width:0.4;"/>
   </g>
   <g id="patch_178">
    <path clip-path="url(#p5a3d58a272)" d="M 283.6 109.021055 
L 289.52 109.021055 
L 289.52 60.376683 
L 283.6 60.376683 
z
" style="fill:#1252b2;stroke:#1252b2;stroke-linejoin:miter;stroke-width:0.4;"/>
   </g>
   <g id="patch_179">
    <path clip-path="url(#p5a3d58a272)" d="M 289.52 172.789891 
L 295.44 172.789891 
L 295.44 172.786522 
L 289.52 172.786522 
z
" style="fill:#1252b2;stroke:#1252b2;stroke-linejoin:miter;stroke-width:0.4;"/>
   </g>
   <g id="patch_180">
    <path clip-path="url(#p5a3d58a272)" d="M 295.44 172.789891 
L 301.36 172.789891 
L 301.36 172.786522 
L 295.44 172.786522 
z
" style="fill:#1252b2;stroke:#1252b2;stroke-linejoin:miter;stroke-width:0.4;"/>
   </g>
   <g id="patch_181">
    <path clip-path="url(#p5a3d58a272)" d="M 301.36 172.789891 
L 307.28 172.789891 
L 307.28 172.786522 
L 301.36 172.786522 
z
" style="fill:#1252b2;stroke:#1252b2;stroke-linejoin:miter;stroke-width:0.4;"/>
   </g>
   <g id="patch_182">
    <path clip-path="url(#p5a3d58a272)" d="M 307.28 139.210627 
L 313.2 139.210627 
L 313.2 139.207258 
L 307.28 139.207258 
z
" style="fill:#1252b2;stroke:#1252b2;stroke-linejoin:miter;stroke-width:0.4;"/>
   </g>
   <g id="patch_183">
    <path clip-path="url(#p5a3d58a272)" d="M 46.8 43.20337 
L 52.72 43.20337 
L 52.72 43.2 
L 46.8 43.2 
z
" style="fill:#9212b2;stroke:#9212b2;stroke-linejoin:miter;stroke-width:0.4;"/>
   </g>
   <g id="patch_184">
    <path clip-path="url(#p5a3d58a272)" d="M 52.72 43.20337 
L 58.64 43.20337 
L 58.64 43.2 
L 52.72 43.2 
z
" style="fill:#9212b2;stroke:#9212b2;stroke-linejoin:miter;stroke-width:0.4;"/>
   </g>
   <g id="patch_185">
    <path clip-path="url(#p5a3d58a272)" d="M 58.64 43.20337 
L 64.56 43.20337 
L 64.56 43.2 
L 58.64 43.2 
z
" style="fill:#9212b2;stroke:#9212b2;stroke-linejoin:miter;stroke-width:0.4;"/>
   </g>
   <g id="patch_186">
    <path clip-path="url(#p5a3d58a272)" d="M 64.56 43.20337 
L 70.48 43.20337 
L 70.48 43.2 
L 64.56 43.2 
z
" style="fill:#9212b2;stroke:#9212b2;stroke-linejoin:miter;stroke-width:0.4;"/>
   </g>
   <g id="patch_187">
    <path clip-path="url(#p5a3d58a272)" d="M 70.48 43.20337 
L 76.4 43.20337 
L 76.4 43.2 
L 70.48 43.2 
z
" style="fill:#9212b2;stroke:#9212b2;stroke-linejoin:miter;stroke-width:0.4;"/>
   </g>
   <g id="patch_188">
    <path clip-path="url(#p5a3d58a272)" d="M 76.4 43.20337 
L 82.32 43.20337 
L 82.32 43.2 
L 76.4 43.2 
z
" style="fill:#9212b2;stroke:#9212b2;stroke-linejoin:miter;stroke-width:0.4;"/>
   </g>
   <g id="patch_189">
    <path clip-path="url(#p5a3d58a272)" d="M 82.32 43.20337 
L 88.24 43.20337 
L 88.24 43.2 
L 82.32 43.2 
z
" style="fill:#9212b2;stroke:#9212b2;stroke-linejoin:miter;stroke-width:0.4;"/>
   </g>
   <g id="patch_190">
    <path clip-path="url(#p5a3d58a272)" d="M 88.24 43.20337 
L 94.16 43.20337 
L 94.16 43.2 
L 88.24 43.2 
z
" style="fill:#9212b2;stroke:#9212b2;stroke-linejoin:miter;stroke-width:0.4;"/>
   </g>
   <g id="patch_191">
    <path clip-path="url(#p5a3d58a272)" d="M 94.16 43.20337 
L 100.08 43.20337 
L 100.08 43.2 
L 94.16 43.2 
z
" style="fill:#9212b2;stroke:#9212b2;stroke-linejoin:miter;stroke-width:0.4;"/>
   </g>
   <g id="patch_192">
    <path clip-path="url(#p5a3d58a272)" d="M 100.08 43.20337 
L 106 43.20337 
L 106 43.2 
L 100.08 43.2 
z
" style="fill:#9212b2;stroke:#9212b2;stroke-linejoin:miter;stroke-width:0.4;"/>
   </g>
   <g id="patch_193">
    <path clip-path="url(#p5a3d58a272)" d="M 106 43.20337 
L 111.92 43.20337 
L 111.92 43.2 
L 106 43.2 
z
" style="fill:#9212b2;stroke:#9212b2;stroke-linejoin:miter;stroke-width:0.4;"/>
   </g>
   <g id="patch_194">
    <path clip-path="url(#p5a3d58a272)" d="M 111.92 43.20337 
L 117.84 43.20337 
L 117.84 43.2 
L 111.92 43.2 
z
" style="fill:#9212b2;stroke:#9212b2;stroke-linejoin:miter;stroke-width:0.4;"/>
   </g>
   <g id="patch_195">
    <path clip-path="url(#p5a3d58a272)" d="M 117.84 43.20337 
L 123.76 43.20337 
L 123.76 43.2 
L 117.84 43.2 
z
" style="fill:#9212b2;stroke:#9212b2;stroke-linejoin:miter;stroke-width:0.4;"/>
   </g>
   <g id="patch_196">
    <path clip-path="url(#p5a3d58a272)" d="M 123.76 43.20337 
L 129.68 43.20337 
L 129.68 43.2 
L 123.76 43.2 
z
" style="fill:#9212b2;stroke:#9212b2;stroke-linejoin:miter;stroke-width:0.4;"/>
   </g>
   <g id="patch_197">
    <path clip-path="url(#p5a3d58a272)" d="M 129.68 43.20337 
L 135.6 43.20337 
L 135.6 43.2 
L 129.68 43.2 
z
" style="fill:#9212b2;stroke:#9212b2;stroke-linejoin:miter;stroke-width:0.4;"/>
   </g>
   <g id="patch_198">
    <path clip-path="url(#p5a3d58a272)" d="M 135.6 43.20337 
L 141.52 43.20337 
L 141.52 43.2 
L 135.6 43.2 
z
" style="fill:#9212b2;stroke:#9212b2;stroke-linejoin:miter;stroke-width:0.4;"/>
   </g>
   <g id="patch_199">
    <path clip-path="url(#p5a3d58a272)" d="M 141.52 43.20337 
L 147.44 43.20337 
L 147.44 43.2 
L 141.52 43.2 
z
" style="fill:#9212b2;stroke:#9212b2;stroke-linejoin:miter;stroke-width:0.4;"/>
   </g>
   <g id="patch_200">
    <path clip-path="url(#p5a3d58a272)" d="M 147.44 43.20337 
L 153.36 43.20337 
L 153.36 43.2 
L 147.44 43.2 
z
" style="fill:#9212b2;stroke:#9212b2;stroke-linejoin:miter;stroke-width:0.4;"/>
   </g>
   <g id="patch_201">
    <path clip-path="url(#p5a3d58a272)" d="M 153.36 43.20337 
L 159.28 43.20337 
L 159.28 43.2 
L 153.36 43.2 
z
" style="fill:#9212b2;stroke:#9212b2;stroke-linejoin:miter;stroke-width:0.4;"/>
   </g>
   <g id="patch_202">
    <path clip-path="url(#p5a3d58a272)" d="M 159.28 43.20337 
L 165.2 43.20337 
L 165.2 43.2 
L 159.28 43.2 
z
" style="fill:#9212b2;stroke:#9212b2;stroke-linejoin:miter;stroke-width:0.4;"/>
   </g>
   <g id="patch_203">
    <path clip-path="url(#p5a3d58a272)" d="M 165.2 43.20337 
L 171.12 43.20337 
L 171.12 43.2 
L 165.2 43.2 
z
" style="fill:#9212b2;stroke:#9212b2;stroke-linejoin:miter;stroke-width:0.4;"/>
   </g>
   <g id="patch_204">
    <path clip-path="url(#p5a3d58a272)" d="M 171.12 43.20337 
L 177.04 43.20337 
L 177.04 43.2 
L 171.12 43.2 
z
" style="fill:#9212b2;stroke:#9212b2;stroke-linejoin:miter;stroke-width:0.4;"/>
   </g>
   <g id="patch_205">
    <path clip-path="url(#p5a3d58a272)" d="M 177.04 43.20337 
L 182.96 43.20337 
L 182.96 43.2 
L 177.04 43.2 
z
" style="fill:#9212b2;stroke:#9212b2;stroke-linejoin:miter;stroke-width:0.4;"/>
   </g>
   <g id="patch_206">
    <path clip-path="url(#p5a3d58a272)" d="M 182.96 43.20337 
L 188.88 43.20337 
L 188.88 43.2 
L 182.96 43.2 
z
" style="fill:#9212b2;stroke:#9212b2;stroke-linejoin:miter;stroke-width:0.4;"/>
   </g>
   <g id="patch_207">
    <path clip-path="url(#p5a3d58a272)" d="M 188.88 43.20337 
L 194.8 43.20337 
L 194.8 43.2 
L 188.88 43.2 
z
" style="fill:#9212b2;stroke:#9212b2;stroke-linejoin:miter;stroke-width:0.4;"/>
   </g>
   <g id="patch_208">
    <path clip-path="url(#p5a3d58a272)" d="M 194.8 43.20337 
L 200.72 43.20337 
L 200.72 43.2 
L 194.8 43.2 
z
" style="fill:#9212b2;stroke:#9212b2;stroke-linejoin:miter;stroke-width:0.4;"/>
   </g>
   <g id="patch_209">
    <path clip-path="url(#p5a3d58a272)" d="M 200.72 43.20337 
L 206.64 43.20337 
L 206.64 43.2 
L 200.72 43.2 
z
" style="fill:#9212b2;stroke:#9212b2;stroke-linejoin:miter;stroke-width:0.4;"/>
   </g>
   <g id="patch_210">
    <path clip-path="url(#p5a3d58a272)" d="M 206.64 43.20337 
L 212.56 43.20337 
L 212.56 43.2 
L 206.64 43.2 
z
" style="fill:#9212b2;stroke:#9212b2;stroke-linejoin:miter;stroke-width:0.4;"/>
   </g>
   <g id="patch_211">
    <path clip-path="url(#p5a3d58a272)" d="M 212.56 43.20337 
L 218.48 43.20337 
L 218.48 43.2 
L 212.56 43.2 
z
" style="fill:#9212b2;stroke:#9212b2;stroke-linejoin:miter;stroke-width:0.4;"/>
   </g>
   <g id="patch_212">
    <path clip-path="url(#p5a3d58a272)" d="M 218.48 43.20337 
L 224.4 43.20337 
L 224.4 43.2 
L 218.48 43.2 
z
" style="fill:#9212b2;stroke:#9212b2;stroke-linejoin:miter;stroke-width:0.4;"/>
   </g>
   <g id="patch_213">
    <path clip-path="url(#p5a3d58a272)" d="M 224.4 43.20337 
L 230.32 43.20337 
L 230.32 43.2 
L 224.4 43.2 
z
" style="fill:#9212b2;stroke:#9212b2;stroke-linejoin:miter;stroke-width:0.4;"/>
   </g>
   <g id="patch_214">
    <path clip-path="url(#p5a3d58a272)" d="M 230.32 43.20337 
L 236.24 43.20337 
L 236.24 43.2 
L 230.32 43.2 
z
" style="fill:#9212b2;stroke:#9212b2;stroke-linejoin:miter;stroke-width:0.4;"/>
   </g>
   <g id="patch_215">
    <path clip-path="url(#p5a3d58a272)" d="M 236.24 43.20337 
L 242.16 43.20337 
L 242.16 43.2 
L 236.24 43.2 
z
" style="fill:#9212b2;stroke:#9212b2;stroke-linejoin:miter;stroke-width:0.4;"/>
   </g>
   <g id="patch_216">
    <path clip-path="url(#p5a3d58a272)" d="M 242.16 43.20337 
L 248.08 43.20337 
L 248.08 43.2 
L 242.16 43.2 
z
" style="fill:#9212b2;stroke:#9212b2;stroke-linejoin:miter;stroke-width:0.4;"/>
   </g>
   <g id="patch_217">
    <path clip-path="url(#p5a3d58a272)" d="M 248.08 43.20337 
L 254 43.20337 
L 254 43.2 
L 248.08 43.2 
z
" style="fill:#9212b2;stroke:#9212b2;stroke-linejoin:miter;stroke-width:0.4;"/>
   </g>
   <g id="patch_218">
    <path clip-path="url(#p5a3d58a272)" d="M 254 43.20337 
L 259.92 43.20337 
L 259.92 43.2 
L 254 43.2 
z
" style="fill:#9212b2;stroke:#9212b2;stroke-linejoin:miter;stroke-width:0.4;"/>
   </g>
   <g id="patch_219">
    <path clip-path="url(#p5a3d58a272)" d="M 259.92 43.20337 
L 265.84 43.20337 
L 265.84 43.2 
L 259.92 43.2 
z
" style="fill:#9212b2;stroke:#9212b2;stroke-linejoin:miter;stroke-width:0.4;"/>
   </g>
   <g id="patch_220">
    <path clip-path="url(#p5a3d58a272)" d="M 265.84 55.885779 
L 271.76 55.885779 
L 271.76 43.2 
L 265.84 43.2 
z
" style="fill:#9212b2;stroke:#9212b2;stroke-linejoin:miter;stroke-width:0.4;"/>
   </g>
   <g id="patch_221">
    <path clip-path="url(#p5a3d58a272)" d="M 271.76 53.038963 
L 277.68 53.038963 
L 277.68 43.2 
L 271.76 43.2 
z
" style="fill:#9212b2;stroke:#9212b2;stroke-linejoin:miter;stroke-width:0.4;"/>
   </g>
   <g id="patch_222">
    <path clip-path="url(#p5a3d58a272)" d="M 277.68 43.20337 
L 283.6 43.20337 
L 283.6 43.2 
L 277.68 43.2 
z
" style="fill:#9212b2;stroke:#9212b2;stroke-linejoin:miter;stroke-width:0.4;"/>
   </g>
   <g id="patch_223">
    <path clip-path="url(#p5a3d58a272)" d="M 283.6 60.376683 
L 289.52 60.376683 
L 289.52 43.2 
L 283.6 43.2 
z
" style="fill:#9212b2;stroke:#9212b2;stroke-linejoin:miter;stroke-width:0.4;"/>
   </g>
   <g id="patch_224">
    <path clip-path="url(#p5a3d58a272)" d="M 289.52 172.786522 
L 295.44 172.786522 
L 295.44 43.2 
L 289.52 43.2 
z
" style="fill:#9212b2;stroke:#9212b2;stroke-linejoin:miter;stroke-width:0.4;"/>
   </g>
   <g id="patch_225">
    <path clip-path="url(#p5a3d58a272)" d="M 295.44 172.786522 
L 301.36 172.786522 
L 301.36 43.2 
L 295.44 43.2 
z
" style="fill:#9212b2;stroke:#9212b2;stroke-linejoin:miter;stroke-width:0.4;"/>
   </g>
   <g id="patch_226">
    <path clip-path="url(#p5a3d58a272)" d="M 301.36 172.786522 
L 307.28 172.786522 
L 307.28 43.2 
L 301.36 43.2 
z
" style="fill:#9212b2;stroke:#9212b2;stroke-linejoin:miter;stroke-width:0.4;"/>
   </g>
   <g id="patch_227">
    <path clip-path="url(#p5a3d58a272)" d="M 307.28 139.207258 
L 313.2 139.207258 
L 313.2 43.2 
L 307.28 43.2 
z
" style="fill:#9212b2;stroke:#9212b2;stroke-linejoin:miter;stroke-width:0.4;"/>
   </g>
   <g id="line2d_1">
    <path clip-path="url(#p5a3d58a272)" d="M 177.04 172.8 
L 177.04 43.2 
" style="fill:none;stroke:#888888;stroke-linecap:square;stroke-width:0.2;"/>
   </g>
   <g id="line2d_2">
    <path clip-path="url(#p5a3d58a272)" d="M 206.64 172.8 
L 206.64 43.2 
" style="fill:none;stroke:#888888;stroke-linecap:square;stroke-width:0.2;"/>
   </g>
   <g id="line2d_3">
    <path clip-path="url(#p5a3d58a272)" d="M 230.32 172.8 
L 230.32 43.2 
" style="fill:none;stroke:#888888;stroke-linecap:square;stroke-width:0.2;"/>
   </g>
   <g id="line2d_4">
    <path clip-path="url(#p5a3d58a272)" d="M 289.52 172.8 
L 289.52 43.2 
" style="fill:none;stroke:#888888;stroke-linecap:square;stroke-width:0.2;"/>
   </g>
   <g id="line2d_5">
    <path clip-path="url(#p5a3d58a272)" d="M 313.2 172.8 
L 313.2 43.2 
" style="fill:none;stroke:#888888;stroke-linecap:square;stroke-width:0.2;"/>
   </g>
   <g id="patch_228">
    <path d="M 46.8 43.2 
L 313.2 43.2 
" style="fill:none;stroke:#000000;stroke-linecap:square;stroke-linejoin:miter;stroke-width:0.001;"/>
   </g>
   <g id="patch_229">
    <path d="M 313.2 172.8 
L 313.2 43.2 
" style="fill:none;stroke:#000000;stroke-linecap:square;stroke-linejoin:miter;stroke-width:0.001;"/>
   </g>
   <g id="patch_230">
    <path d="M 46.8 172.8 
L 313.2 172.8 
" style="fill:none;stroke:#000000;stroke-linecap:square;stroke-linejoin:miter;stroke-width:0.001;"/>
   </g>
   <g id="patch_231">
    <path d="M 46.8 172.8 
L 46.8 43.2 
" style="fill:none;stroke:#000000;stroke-linecap:square;stroke-linejoin:miter;stroke-width:0.001;"/>
   </g>
   <g id="matplotlib.axis_1">
    <g id="xtick_1"/>
    <g id="xtick_2"/>
    <g id="xtick_3"/>
    <g id="xtick_4"/>
    <g id="xtick_5"/>
    <g id="xtick_6"/>
    <g id="xtick_7"/>
    <g id="xtick_8"/>
   </g>
   <g id="matplotlib.axis_2">
    <g id="ytick_1"/>
    <g id="ytick_2"/>
    <g id="ytick_3"/>
    <g id="ytick_4"/>
    <g id="ytick_5"/>
    <g id="ytick_6"/>
   </g>
  </g>
  <g id="text_1">
   <!-- E/Eput_simple -->
   <defs>
    <path d="M 50.984375 -16.609375 
L 50.984375 -23.578125 
L -0.984375 -23.578125 
L -0.984375 -16.609375 
z
" id="BitstreamVeraSans-Roman-5f"/>
    <path d="M 52 44.1875 
Q 55.375 50.25 60.0625 53.125 
Q 64.75 56 71.09375 56 
Q 79.640625 56 84.28125 50.015625 
Q 88.921875 44.046875 88.921875 33.015625 
L 88.921875 0 
L 79.890625 0 
L 79.890625 32.71875 
Q 79.890625 40.578125 77.09375 44.375 
Q 74.3125 48.1875 68.609375 48.1875 
Q 61.625 48.1875 57.5625 43.546875 
Q 53.515625 38.921875 53.515625 30.90625 
L 53.515625 0 
L 44.484375 0 
L 44.484375 32.71875 
Q 44.484375 40.625 41.703125 44.40625 
Q 38.921875 48.1875 33.109375 48.1875 
Q 26.21875 48.1875 22.15625 43.53125 
Q 18.109375 38.875 18.109375 30.90625 
L 18.109375 0 
L 9.078125 0 
L 9.078125 54.6875 
L 18.109375 54.6875 
L 18.109375 46.1875 
Q 21.1875 51.21875 25.484375 53.609375 
Q 29.78125 56 35.6875 56 
Q 41.65625 56 45.828125 52.96875 
Q 50 49.953125 52 44.1875 
" id="BitstreamVeraSans-Roman-6d"/>
    <path d="M 9.421875 75.984375 
L 18.40625 75.984375 
L 18.40625 0 
L 9.421875 0 
z
" id="BitstreamVeraSans-Roman-6c"/>
    <path d="M 9.8125 72.90625 
L 55.90625 72.90625 
L 55.90625 64.59375 
L 19.671875 64.59375 
L 19.671875 43.015625 
L 54.390625 43.015625 
L 54.390625 34.71875 
L 19.671875 34.71875 
L 19.671875 8.296875 
L 56.78125 8.296875 
L 56.78125 0 
L 9.8125 0 
z
" id="BitstreamVeraSans-Roman-45"/>
    <path d="M 9.421875 54.6875 
L 18.40625 54.6875 
L 18.40625 0 
L 9.421875 0 
z
M 9.421875 75.984375 
L 18.40625 75.984375 
L 18.40625 64.59375 
L 9.421875 64.59375 
z
" id="BitstreamVeraSans-Roman-69"/>
    <path d="M 25.390625 72.90625 
L 33.6875 72.90625 
L 8.296875 -9.28125 
L 0 -9.28125 
z
" id="BitstreamVeraSans-Roman-2f"/>
    <path d="M 56.203125 29.59375 
L 56.203125 25.203125 
L 14.890625 25.203125 
Q 15.484375 15.921875 20.484375 11.0625 
Q 25.484375 6.203125 34.421875 6.203125 
Q 39.59375 6.203125 44.453125 7.46875 
Q 49.3125 8.734375 54.109375 11.28125 
L 54.109375 2.78125 
Q 49.265625 0.734375 44.1875 -0.34375 
Q 39.109375 -1.421875 33.890625 -1.421875 
Q 20.796875 -1.421875 13.15625 6.1875 
Q 5.515625 13.8125 5.515625 26.8125 
Q 5.515625 40.234375 12.765625 48.109375 
Q 20.015625 56 32.328125 56 
Q 43.359375 56 49.78125 48.890625 
Q 56.203125 41.796875 56.203125 29.59375 
M 47.21875 32.234375 
Q 47.125 39.59375 43.09375 43.984375 
Q 39.0625 48.390625 32.421875 48.390625 
Q 24.90625 48.390625 20.390625 44.140625 
Q 15.875 39.890625 15.1875 32.171875 
z
" id="BitstreamVeraSans-Roman-65"/>
    <path d="M 18.3125 70.21875 
L 18.3125 54.6875 
L 36.8125 54.6875 
L 36.8125 47.703125 
L 18.3125 47.703125 
L 18.3125 18.015625 
Q 18.3125 11.328125 20.140625 9.421875 
Q 21.96875 7.515625 27.59375 7.515625 
L 36.8125 7.515625 
L 36.8125 0 
L 27.59375 0 
Q 17.1875 0 13.234375 3.875 
Q 9.28125 7.765625 9.28125 18.015625 
L 9.28125 47.703125 
L 2.6875 47.703125 
L 2.6875 54.6875 
L 9.28125 54.6875 
L 9.28125 70.21875 
z
" id="BitstreamVeraSans-Roman-74"/>
    <path d="M 8.5 21.578125 
L 8.5 54.6875 
L 17.484375 54.6875 
L 17.484375 21.921875 
Q 17.484375 14.15625 20.5 10.265625 
Q 23.53125 6.390625 29.59375 6.390625 
Q 36.859375 6.390625 41.078125 11.03125 
Q 45.3125 15.671875 45.3125 23.6875 
L 45.3125 54.6875 
L 54.296875 54.6875 
L 54.296875 0 
L 45.3125 0 
L 45.3125 8.40625 
Q 42.046875 3.421875 37.71875 1 
Q 33.40625 -1.421875 27.6875 -1.421875 
Q 18.265625 -1.421875 13.375 4.4375 
Q 8.5 10.296875 8.5 21.578125 
" id="BitstreamVeraSans-Roman-75"/>
    <path d="M 44.28125 53.078125 
L 44.28125 44.578125 
Q 40.484375 46.53125 36.375 47.5 
Q 32.28125 48.484375 27.875 48.484375 
Q 21.1875 48.484375 17.84375 46.4375 
Q 14.5 44.390625 14.5 40.28125 
Q 14.5 37.15625 16.890625 35.375 
Q 19.28125 33.59375 26.515625 31.984375 
L 29.59375 31.296875 
Q 39.15625 29.25 43.1875 25.515625 
Q 47.21875 21.78125 47.21875 15.09375 
Q 47.21875 7.46875 41.1875 3.015625 
Q 35.15625 -1.421875 24.609375 -1.421875 
Q 20.21875 -1.421875 15.453125 -0.5625 
Q 10.6875 0.296875 5.421875 2 
L 5.421875 11.28125 
Q 10.40625 8.6875 15.234375 7.390625 
Q 20.0625 6.109375 24.8125 6.109375 
Q 31.15625 6.109375 34.5625 8.28125 
Q 37.984375 10.453125 37.984375 14.40625 
Q 37.984375 18.0625 35.515625 20.015625 
Q 33.0625 21.96875 24.703125 23.78125 
L 21.578125 24.515625 
Q 13.234375 26.265625 9.515625 29.90625 
Q 5.8125 33.546875 5.8125 39.890625 
Q 5.8125 47.609375 11.28125 51.796875 
Q 16.75 56 26.8125 56 
Q 31.78125 56 36.171875 55.265625 
Q 40.578125 54.546875 44.28125 53.078125 
" id="BitstreamVeraSans-Roman-73"/>
    <path d="M 18.109375 8.203125 
L 18.109375 -20.796875 
L 9.078125 -20.796875 
L 9.078125 54.6875 
L 18.109375 54.6875 
L 18.109375 46.390625 
Q 20.953125 51.265625 25.265625 53.625 
Q 29.59375 56 35.59375 56 
Q 45.5625 56 51.78125 48.09375 
Q 58.015625 40.1875 58.015625 27.296875 
Q 58.015625 14.40625 51.78125 6.484375 
Q 45.5625 -1.421875 35.59375 -1.421875 
Q 29.59375 -1.421875 25.265625 0.953125 
Q 20.953125 3.328125 18.109375 8.203125 
M 48.6875 27.296875 
Q 48.6875 37.203125 44.609375 42.84375 
Q 40.53125 48.484375 33.40625 48.484375 
Q 26.265625 48.484375 22.1875 42.84375 
Q 18.109375 37.203125 18.109375 27.296875 
Q 18.109375 17.390625 22.1875 11.75 
Q 26.265625 6.109375 33.40625 6.109375 
Q 40.53125 6.109375 44.609375 11.75 
Q 48.6875 17.390625 48.6875 27.296875 
" id="BitstreamVeraSans-Roman-70"/>
   </defs>
   <g transform="translate(137.6278125 24.744375)scale(0.12 -0.12)">
    <use xlink:href="#BitstreamVeraSans-Roman-45"/>
    <use x="63.18359375" xlink:href="#BitstreamVeraSans-Roman-2f"/>
    <use x="96.875" xlink:href="#BitstreamVeraSans-Roman-45"/>
    <use x="160.05859375" xlink:href="#BitstreamVeraSans-Roman-70"/>
    <use x="223.53515625" xlink:href="#BitstreamVeraSans-Roman-75"/>
    <use x="286.9140625" xlink:href="#BitstreamVeraSans-Roman-74"/>
    <use x="326.123046875" xlink:href="#BitstreamVeraSans-Roman-5f"/>
    <use x="376.123046875" xlink:href="#BitstreamVeraSans-Roman-73"/>
    <use x="428.22265625" xlink:href="#BitstreamVeraSans-Roman-69"/>
    <use x="456.005859375" xlink:href="#BitstreamVeraSans-Roman-6d"/>
    <use x="553.41796875" xlink:href="#BitstreamVeraSans-Roman-70"/>
    <use x="616.89453125" xlink:href="#BitstreamVeraSans-Roman-6c"/>
    <use x="644.677734375" xlink:href="#BitstreamVeraSans-Roman-65"/>
   </g>
  </g>
  <g id="text_2">
   <!-- population 1 -->
   <defs>
    <path d="M 54.890625 33.015625 
L 54.890625 0 
L 45.90625 0 
L 45.90625 32.71875 
Q 45.90625 40.484375 42.875 44.328125 
Q 39.84375 48.1875 33.796875 48.1875 
Q 26.515625 48.1875 22.3125 43.546875 
Q 18.109375 38.921875 18.109375 30.90625 
L 18.109375 0 
L 9.078125 0 
L 9.078125 54.6875 
L 18.109375 54.6875 
L 18.109375 46.1875 
Q 21.34375 51.125 25.703125 53.5625 
Q 30.078125 56 35.796875 56 
Q 45.21875 56 50.046875 50.171875 
Q 54.890625 44.34375 54.890625 33.015625 
" id="BitstreamVeraSans-Roman-6e"/>
    <path id="BitstreamVeraSans-Roman-20"/>
    <path d="M 12.40625 8.296875 
L 28.515625 8.296875 
L 28.515625 63.921875 
L 10.984375 60.40625 
L 10.984375 69.390625 
L 28.421875 72.90625 
L 38.28125 72.90625 
L 38.28125 8.296875 
L 54.390625 8.296875 
L 54.390625 0 
L 12.40625 0 
z
" id="BitstreamVeraSans-Roman-31"/>
    <path d="M 30.609375 48.390625 
Q 23.390625 48.390625 19.1875 42.75 
Q 14.984375 37.109375 14.984375 27.296875 
Q 14.984375 17.484375 19.15625 11.84375 
Q 23.34375 6.203125 30.609375 6.203125 
Q 37.796875 6.203125 41.984375 11.859375 
Q 46.1875 17.53125 46.1875 27.296875 
Q 46.1875 37.015625 41.984375 42.703125 
Q 37.796875 48.390625 30.609375 48.390625 
M 30.609375 56 
Q 42.328125 56 49.015625 48.375 
Q 55.71875 40.765625 55.71875 27.296875 
Q 55.71875 13.875 49.015625 6.21875 
Q 42.328125 -1.421875 30.609375 -1.421875 
Q 18.84375 -1.421875 12.171875 6.21875 
Q 5.515625 13.875 5.515625 27.296875 
Q 5.515625 40.765625 12.171875 48.375 
Q 18.84375 56 30.609375 56 
" id="BitstreamVeraSans-Roman-6f"/>
    <path d="M 34.28125 27.484375 
Q 23.390625 27.484375 19.1875 25 
Q 14.984375 22.515625 14.984375 16.5 
Q 14.984375 11.71875 18.140625 8.90625 
Q 21.296875 6.109375 26.703125 6.109375 
Q 34.1875 6.109375 38.703125 11.40625 
Q 43.21875 16.703125 43.21875 25.484375 
L 43.21875 27.484375 
z
M 52.203125 31.203125 
L 52.203125 0 
L 43.21875 0 
L 43.21875 8.296875 
Q 40.140625 3.328125 35.546875 0.953125 
Q 30.953125 -1.421875 24.3125 -1.421875 
Q 15.921875 -1.421875 10.953125 3.296875 
Q 6 8.015625 6 15.921875 
Q 6 25.140625 12.171875 29.828125 
Q 18.359375 34.515625 30.609375 34.515625 
L 43.21875 34.515625 
L 43.21875 35.40625 
Q 43.21875 41.609375 39.140625 45 
Q 35.0625 48.390625 27.6875 48.390625 
Q 23 48.390625 18.546875 47.265625 
Q 14.109375 46.140625 10.015625 43.890625 
L 10.015625 52.203125 
Q 14.9375 54.109375 19.578125 55.046875 
Q 24.21875 56 28.609375 56 
Q 40.484375 56 46.34375 49.84375 
Q 52.203125 43.703125 52.203125 31.203125 
" id="BitstreamVeraSans-Roman-61"/>
   </defs>
   <g transform="translate(97.8694194738 211.901361268)rotate(-70.0)scale(0.06 -0.06)">
    <use xlink:href="#BitstreamVeraSans-Roman-70"/>
    <use x="63.4765625" xlink:href="#BitstreamVeraSans-Roman-6f"/>
    <use x="124.658203125" xlink:href="#BitstreamVeraSans-Roman-70"/>
    <use x="188.134765625" xlink:href="#BitstreamVeraSans-Roman-75"/>
    <use x="251.513671875" xlink:href="#BitstreamVeraSans-Roman-6c"/>
    <use x="279.296875" xlink:href="#BitstreamVeraSans-Roman-61"/>
    <use x="340.576171875" xlink:href="#BitstreamVeraSans-Roman-74"/>
    <use x="379.78515625" xlink:href="#BitstreamVeraSans-Roman-69"/>
    <use x="407.568359375" xlink:href="#BitstreamVeraSans-Roman-6f"/>
    <use x="468.75" xlink:href="#BitstreamVeraSans-Roman-6e"/>
    <use x="532.12890625" xlink:href="#BitstreamVeraSans-Roman-20"/>
    <use x="563.916015625" xlink:href="#BitstreamVeraSans-Roman-31"/>
   </g>
  </g>
  <g id="text_3">
   <!-- population 2 -->
   <defs>
    <path d="M 19.1875 8.296875 
L 53.609375 8.296875 
L 53.609375 0 
L 7.328125 0 
L 7.328125 8.296875 
Q 12.9375 14.109375 22.625 23.890625 
Q 32.328125 33.6875 34.8125 36.53125 
Q 39.546875 41.84375 41.421875 45.53125 
Q 43.3125 49.21875 43.3125 52.78125 
Q 43.3125 58.59375 39.234375 62.25 
Q 35.15625 65.921875 28.609375 65.921875 
Q 23.96875 65.921875 18.8125 64.3125 
Q 13.671875 62.703125 7.8125 59.421875 
L 7.8125 69.390625 
Q 13.765625 71.78125 18.9375 73 
Q 24.125 74.21875 28.421875 74.21875 
Q 39.75 74.21875 46.484375 68.546875 
Q 53.21875 62.890625 53.21875 53.421875 
Q 53.21875 48.921875 51.53125 44.890625 
Q 49.859375 40.875 45.40625 35.40625 
Q 44.1875 33.984375 37.640625 27.21875 
Q 31.109375 20.453125 19.1875 8.296875 
" id="BitstreamVeraSans-Roman-32"/>
   </defs>
   <g transform="translate(177.789419474 211.901361268)rotate(-70.0)scale(0.06 -0.06)">
    <use xlink:href="#BitstreamVeraSans-Roman-70"/>
    <use x="63.4765625" xlink:href="#BitstreamVeraSans-Roman-6f"/>
    <use x="124.658203125" xlink:href="#BitstreamVeraSans-Roman-70"/>
    <use x="188.134765625" xlink:href="#BitstreamVeraSans-Roman-75"/>
    <use x="251.513671875" xlink:href="#BitstreamVeraSans-Roman-6c"/>
    <use x="279.296875" xlink:href="#BitstreamVeraSans-Roman-61"/>
    <use x="340.576171875" xlink:href="#BitstreamVeraSans-Roman-74"/>
    <use x="379.78515625" xlink:href="#BitstreamVeraSans-Roman-69"/>
    <use x="407.568359375" xlink:href="#BitstreamVeraSans-Roman-6f"/>
    <use x="468.75" xlink:href="#BitstreamVeraSans-Roman-6e"/>
    <use x="532.12890625" xlink:href="#BitstreamVeraSans-Roman-20"/>
    <use x="563.916015625" xlink:href="#BitstreamVeraSans-Roman-32"/>
   </g>
  </g>
  <g id="text_4">
   <!-- population 3 -->
   <defs>
    <path d="M 40.578125 39.3125 
Q 47.65625 37.796875 51.625 33 
Q 55.609375 28.21875 55.609375 21.1875 
Q 55.609375 10.40625 48.1875 4.484375 
Q 40.765625 -1.421875 27.09375 -1.421875 
Q 22.515625 -1.421875 17.65625 -0.515625 
Q 12.796875 0.390625 7.625 2.203125 
L 7.625 11.71875 
Q 11.71875 9.328125 16.59375 8.109375 
Q 21.484375 6.890625 26.8125 6.890625 
Q 36.078125 6.890625 40.9375 10.546875 
Q 45.796875 14.203125 45.796875 21.1875 
Q 45.796875 27.640625 41.28125 31.265625 
Q 36.765625 34.90625 28.71875 34.90625 
L 20.21875 34.90625 
L 20.21875 43.015625 
L 29.109375 43.015625 
Q 36.375 43.015625 40.234375 45.921875 
Q 44.09375 48.828125 44.09375 54.296875 
Q 44.09375 59.90625 40.109375 62.90625 
Q 36.140625 65.921875 28.71875 65.921875 
Q 24.65625 65.921875 20.015625 65.03125 
Q 15.375 64.15625 9.8125 62.3125 
L 9.8125 71.09375 
Q 15.4375 72.65625 20.34375 73.4375 
Q 25.25 74.21875 29.59375 74.21875 
Q 40.828125 74.21875 47.359375 69.109375 
Q 53.90625 64.015625 53.90625 55.328125 
Q 53.90625 49.265625 50.4375 45.09375 
Q 46.96875 40.921875 40.578125 39.3125 
" id="BitstreamVeraSans-Roman-33"/>
   </defs>
   <g transform="translate(204.429419474 211.901361268)rotate(-70.0)scale(0.06 -0.06)">
    <use xlink:href="#BitstreamVeraSans-Roman-70"/>
    <use x="63.4765625" xlink:href="#BitstreamVeraSans-Roman-6f"/>
    <use x="124.658203125" xlink:href="#BitstreamVeraSans-Roman-70"/>
    <use x="188.134765625" xlink:href="#BitstreamVeraSans-Roman-75"/>
    <use x="251.513671875" xlink:href="#BitstreamVeraSans-Roman-6c"/>
    <use x="279.296875" xlink:href="#BitstreamVeraSans-Roman-61"/>
    <use x="340.576171875" xlink:href="#BitstreamVeraSans-Roman-74"/>
    <use x="379.78515625" xlink:href="#BitstreamVeraSans-Roman-69"/>
    <use x="407.568359375" xlink:href="#BitstreamVeraSans-Roman-6f"/>
    <use x="468.75" xlink:href="#BitstreamVeraSans-Roman-6e"/>
    <use x="532.12890625" xlink:href="#BitstreamVeraSans-Roman-20"/>
    <use x="563.916015625" xlink:href="#BitstreamVeraSans-Roman-33"/>
   </g>
  </g>
  <g id="text_5">
   <!-- population 4 -->
   <defs>
    <path d="M 37.796875 64.3125 
L 12.890625 25.390625 
L 37.796875 25.390625 
z
M 35.203125 72.90625 
L 47.609375 72.90625 
L 47.609375 25.390625 
L 58.015625 25.390625 
L 58.015625 17.1875 
L 47.609375 17.1875 
L 47.609375 0 
L 37.796875 0 
L 37.796875 17.1875 
L 4.890625 17.1875 
L 4.890625 26.703125 
z
" id="BitstreamVeraSans-Roman-34"/>
   </defs>
   <g transform="translate(245.869419474 211.901361268)rotate(-70.0)scale(0.06 -0.06)">
    <use xlink:href="#BitstreamVeraSans-Roman-70"/>
    <use x="63.4765625" xlink:href="#BitstreamVeraSans-Roman-6f"/>
    <use x="124.658203125" xlink:href="#BitstreamVeraSans-Roman-70"/>
    <use x="188.134765625" xlink:href="#BitstreamVeraSans-Roman-75"/>
    <use x="251.513671875" xlink:href="#BitstreamVeraSans-Roman-6c"/>
    <use x="279.296875" xlink:href="#BitstreamVeraSans-Roman-61"/>
    <use x="340.576171875" xlink:href="#BitstreamVeraSans-Roman-74"/>
    <use x="379.78515625" xlink:href="#BitstreamVeraSans-Roman-69"/>
    <use x="407.568359375" xlink:href="#BitstreamVeraSans-Roman-6f"/>
    <use x="468.75" xlink:href="#BitstreamVeraSans-Roman-6e"/>
    <use x="532.12890625" xlink:href="#BitstreamVeraSans-Roman-20"/>
    <use x="563.916015625" xlink:href="#BitstreamVeraSans-Roman-34"/>
   </g>
  </g>
  <g id="text_6">
   <!-- population 5 -->
   <defs>
    <path d="M 10.796875 72.90625 
L 49.515625 72.90625 
L 49.515625 64.59375 
L 19.828125 64.59375 
L 19.828125 46.734375 
Q 21.96875 47.46875 24.109375 47.828125 
Q 26.265625 48.1875 28.421875 48.1875 
Q 40.625 48.1875 47.75 41.5 
Q 54.890625 34.8125 54.890625 23.390625 
Q 54.890625 11.625 47.5625 5.09375 
Q 40.234375 -1.421875 26.90625 -1.421875 
Q 22.3125 -1.421875 17.546875 -0.640625 
Q 12.796875 0.140625 7.71875 1.703125 
L 7.71875 11.625 
Q 12.109375 9.234375 16.796875 8.0625 
Q 21.484375 6.890625 26.703125 6.890625 
Q 35.15625 6.890625 40.078125 11.328125 
Q 45.015625 15.765625 45.015625 23.390625 
Q 45.015625 31 40.078125 35.4375 
Q 35.15625 39.890625 26.703125 39.890625 
Q 22.75 39.890625 18.8125 39.015625 
Q 14.890625 38.140625 10.796875 36.28125 
z
" id="BitstreamVeraSans-Roman-35"/>
   </defs>
   <g transform="translate(287.309419474 211.901361268)rotate(-70.0)scale(0.06 -0.06)">
    <use xlink:href="#BitstreamVeraSans-Roman-70"/>
    <use x="63.4765625" xlink:href="#BitstreamVeraSans-Roman-6f"/>
    <use x="124.658203125" xlink:href="#BitstreamVeraSans-Roman-70"/>
    <use x="188.134765625" xlink:href="#BitstreamVeraSans-Roman-75"/>
    <use x="251.513671875" xlink:href="#BitstreamVeraSans-Roman-6c"/>
    <use x="279.296875" xlink:href="#BitstreamVeraSans-Roman-61"/>
    <use x="340.576171875" xlink:href="#BitstreamVeraSans-Roman-74"/>
    <use x="379.78515625" xlink:href="#BitstreamVeraSans-Roman-69"/>
    <use x="407.568359375" xlink:href="#BitstreamVeraSans-Roman-6f"/>
    <use x="468.75" xlink:href="#BitstreamVeraSans-Roman-6e"/>
    <use x="532.12890625" xlink:href="#BitstreamVeraSans-Roman-20"/>
    <use x="563.916015625" xlink:href="#BitstreamVeraSans-Roman-35"/>
   </g>
  </g>
 </g>
 <defs>
  <clipPath id="p5a3d58a272">
   <rect height="129.6" width="266.4" x="46.8" y="43.2"/>
  </clipPath>
 </defs>
</svg>
